<svg xmlns="http://www.w3.org/2000/svg" viewBox="0 0 640 640" width="640" height="640">
<g fill="#E8501A" fill-rule="evenodd" transform="translate(0,640) scale(0.1,-0.1)"><path d="M0 3200 l0 -3200 3200 0 3200 0 0 3200 0 3200 -3200 0 -3200 0 0
-3200z m3447 2108 c34 -7 65 -16 69 -20 4 -5 24 -8 44 -8 20 0 106 -20 191
-44 222 -64 316 -99 509 -189 36 -16 84 -38 108 -48 24 -11 42 -24 40 -30 -2
-7 -26 -20 -53 -31 -28 -11 -78 -32 -113 -49 -34 -16 -65 -29 -69 -29 -6 0
-97 -39 -198 -86 -105 -48 -171 -77 -209 -90 -22 -8 -44 -18 -50 -22 -6 -4
-49 -23 -96 -41 -47 -19 -114 -47 -150 -64 -36 -16 -101 -45 -144 -64 -44 -19
-94 -40 -110 -48 -56 -25 -220 -96 -261 -112 -22 -8 -53 -21 -70 -29 -80 -37
-271 -121 -360 -159 -283 -120 -394 -169 -414 -184 -23 -17 -27 -34 -76 -276
-13 -66 -30 -151 -39 -190 -8 -38 -25 -122 -37 -185 -12 -63 -26 -120 -31
-127 -5 -7 -7 -16 -5 -20 3 -5 -1 -40 -9 -78 -8 -39 -21 -106 -29 -150 -8 -44
-26 -132 -40 -195 -14 -63 -30 -142 -36 -175 -5 -33 -12 -69 -16 -79 -5 -20
-6 -20 -20 0 -8 10 -35 62 -60 114 -24 52 -49 103 -54 113 -22 40 -113 281
-124 327 -2 8 -17 58 -33 110 -58 187 -112 477 -133 714 -15 168 -6 577 15
661 16 65 26 77 135 154 34 25 75 55 89 68 15 13 33 21 40 18 7 -3 10 0 7 5
-3 6 1 10 9 10 9 0 16 4 16 8 0 9 201 132 217 132 6 0 16 7 23 14 6 8 30 24
53 35 23 10 99 46 168 80 70 33 140 63 155 67 16 4 34 11 41 16 14 11 291 102
343 113 19 4 54 13 78 21 23 8 57 14 75 14 18 0 50 7 73 15 23 7 70 17 105 20
35 3 66 8 69 12 9 9 300 -6 367 -19z"/></g>
<g fill="#1A6B55" fill-rule="evenodd" transform="translate(0,640) scale(0.1,-0.1)"><path d="M0 3200 l0 -3200 3200 0 3200 0 0 3200 0 3200 -3200 0 -3200 0 0
-3200z m5015 1358 c14 -60 25 -218 25 -354 l0 -151 -127 -51 c-71 -28 -229
-90 -353 -137 -259 -100 -473 -184 -478 -190 -3 -2 12 -27 32 -54 l37 -50 37
14 c50 18 724 280 789 307 29 12 54 20 57 17 13 -15 -44 -413 -85 -591 l-20
-87 -52 -20 c-29 -10 -155 -59 -282 -109 -126 -49 -238 -92 -247 -95 -13 -5
-18 -17 -18 -45 0 -22 -3 -54 -6 -71 l-6 -31 38 14 c22 8 116 44 209 81 223
88 306 118 311 112 8 -8 -92 -269 -154 -405 -60 -132 -176 -345 -196 -360 -6
-5 -137 -58 -291 -117 -154 -60 -399 -155 -545 -212 -146 -57 -328 -128 -405
-158 -273 -106 -611 -237 -672 -261 -34 -13 -67 -24 -75 -24 -17 0 -203 174
-291 273 l-68 76 11 63 c6 35 13 71 16 80 5 15 87 51 382 164 l72 28 -47 48
c-36 36 -52 47 -68 42 -11 -4 -82 -31 -158 -61 -76 -30 -141 -52 -145 -48 -4
3 14 128 39 277 44 260 45 274 33 342 -32 175 -10 399 54 558 120 299 355 510
675 605 84 25 107 28 257 28 98 0 193 -5 235 -13 l70 -14 160 70 c88 38 313
136 500 217 187 81 369 160 405 176 207 92 316 138 327 138 7 1 15 -9 18 -21z
m-636 -2480 c-109 -157 -328 -392 -514 -552 -195 -168 -301 -245 -547 -395
l-118 -72 -102 62 c-200 120 -438 288 -438 308 0 8 89 43 575 231 110 43 241
93 290 113 50 20 254 99 455 177 201 77 374 144 385 150 34 15 37 11 14 -22z
M3135 3814 c-301 -67 -536 -288 -626 -590 -29 -98 -37 -284 -15 -387 65 -317
299 -564 611 -648 107 -29 299 -31 398 -5 287 76 509 276 598 542 155 459 -93
933 -561 1076 -89 27 -307 34 -405 12z m410 -98 c73 -25 205 -93 205 -106 0
-5 -54 -50 -77 -63 -6 -4 -49 3 -95 17 -46 13 -111 26 -145 30 -50 6 -68 13
-95 38 -18 17 -59 48 -91 69 -35 22 -52 39 -45 43 7 3 69 4 138 2 104 -3 139
-8 205 -30z m-346 -35 c36 -22 83 -54 104 -73 l39 -33 -55 -110 -54 -110 -104
-34 c-57 -18 -136 -50 -176 -72 l-71 -39 -59 45 c-32 24 -64 49 -71 55 -18 16
-6 94 23 155 41 84 95 146 155 177 43 22 177 74 199 77 3 1 34 -17 70 -38z
m670 -177 c84 -90 151 -215 176 -330 l18 -76 -29 -23 -29 -23 -69 69 c-38 38
-92 85 -121 104 -50 33 -53 37 -65 97 -6 35 -21 86 -31 113 -10 28 -19 57 -19
66 0 14 74 78 92 79 3 0 38 -34 77 -76z m-572 -241 c32 -26 67 -55 77 -63 11
-8 36 -31 57 -50 l38 -35 -24 -175 c-13 -96 -24 -176 -25 -178 0 -6 -166 -79
-218 -97 l-54 -17 -71 48 c-74 50 -201 164 -217 195 -10 18 1 136 20 225 10
48 14 52 78 89 58 34 236 103 269 104 6 1 37 -20 70 -46z m499 -74 c25 -17 78
-64 118 -105 l74 -74 -5 -63 c-6 -84 -39 -216 -60 -239 -26 -29 -193 -109
-238 -114 -44 -5 -47 -3 -167 113 -44 42 -57 60 -53 77 3 11 12 77 20 146 25
211 12 185 128 240 56 27 110 49 120 49 10 1 39 -13 63 -30z m-743 -525 c40
-27 69 -54 72 -67 9 -47 26 -200 22 -204 -10 -9 -149 -53 -175 -55 -38 -3
-135 65 -214 151 -57 61 -68 80 -82 135 -9 36 -16 92 -16 125 l0 60 58 16 c31
9 68 20 82 24 22 7 35 -2 105 -66 44 -41 110 -94 148 -119z m906 -18 c15 -18
6 -38 -54 -116 -69 -90 -185 -179 -292 -224 -35 -14 -66 -26 -71 -26 -5 0 -17
15 -27 34 l-19 34 47 54 c26 29 62 73 80 97 22 32 42 47 67 53 55 14 141 49
190 79 53 32 63 34 79 15z m-704 -301 c33 -8 92 -15 130 -15 68 0 71 -1 89
-31 10 -17 16 -32 14 -34 -12 -13 -163 -26 -225 -21 -79 7 -210 39 -225 54 -7
7 8 15 44 26 29 9 60 20 68 26 20 13 33 12 105 -5z"/></g>
<g fill="#FFFFFF" fill-rule="evenodd" transform="translate(0,640) scale(0.1,-0.1)"><path d="M0 3200 l0 -3200 3200 0 3200 0 0 3200 0 3200 -3200 0 -3200 0 0
-3200z m3534 2825 c1313 -154 2347 -1188 2501 -2501 19 -167 19 -491 0 -658
-154 -1313 -1188 -2347 -2501 -2501 -167 -19 -491 -19 -658 0 -1313 154 -2347
1188 -2501 2501 -19 167 -19 491 0 658 153 1307 1183 2342 2489 2500 155 19
511 20 670 1z M3065 5333 c-463 -66 -931 -242 -1350 -506 -58 -37 -268 -187
-304 -217 -32 -27 -49 -134 -57 -365 -16 -427 79 -997 228 -1370 87 -217 199
-442 210 -422 4 8 73 339 152 735 79 396 150 730 156 742 12 22 97 65 305 155
61 26 124 53 140 61 54 24 427 184 605 261 96 41 203 87 237 104 35 16 65 29
68 29 4 0 167 70 290 126 39 17 234 101 410 176 188 80 275 121 275 128 0 4
-57 34 -127 68 -433 206 -967 333 -1238 295z M4875 4536 c-66 -29 -165 -72
-220 -96 -55 -23 -138 -60 -185 -81 -47 -21 -262 -115 -479 -209 l-395 -171
-73 15 c-355 74 -706 -37 -954 -301 -81 -86 -117 -138 -168 -240 -96 -194
-128 -419 -93 -638 13 -78 12 -86 -33 -354 -25 -150 -44 -276 -41 -278 2 -2
37 9 77 26 140 57 231 91 242 91 7 0 32 -19 56 -42 l43 -41 -224 -89 -224 -88
-13 -80 c-12 -69 -11 -83 1 -102 22 -33 244 -257 299 -301 l45 -36 140 53 c76
29 285 110 464 180 179 70 370 145 425 166 55 21 206 80 335 130 129 51 258
100 285 110 28 10 117 45 200 78 l150 60 77 138 c43 76 104 199 137 273 64
146 139 356 130 365 -3 3 -57 -15 -120 -40 -63 -25 -177 -69 -254 -99 -77 -29
-148 -57 -158 -60 -16 -7 -18 -2 -15 56 l3 64 55 21 c30 12 66 27 80 32 14 6
120 47 235 92 116 45 215 87 221 93 23 25 92 405 110 609 l6 78 -38 -14 c-22
-8 -115 -44 -209 -81 -93 -36 -204 -79 -245 -95 -41 -16 -145 -56 -230 -89
-85 -34 -158 -61 -162 -61 -4 0 -23 21 -43 47 l-36 47 68 26 c37 15 176 69
308 120 132 51 319 124 415 161 l175 68 -2 183 c-3 186 -20 349 -38 354 -6 2
-64 -21 -130 -50z m-1361 -731 c156 -41 273 -110 391 -230 95 -96 154 -193
197 -319 28 -80 32 -107 36 -226 3 -113 1 -150 -17 -224 -57 -239 -224 -447
-446 -555 -113 -55 -182 -72 -327 -78 -108 -5 -141 -2 -221 16 -326 75 -574
337 -632 666 -19 108 -19 166 -1 275 40 246 184 455 403 586 78 47 196 90 281
104 78 12 264 4 336 -15z M3233 3753 c-24 -2 -43 -8 -43 -13 0 -4 28 -26 63
-48 34 -22 75 -54 91 -71 24 -25 38 -31 70 -31 41 0 122 -16 207 -40 45 -13
46 -13 92 22 43 33 45 36 29 51 -31 27 -126 74 -192 96 -62 20 -213 43 -255
39 -11 -1 -39 -3 -62 -5z M3049 3696 c-128 -45 -174 -74 -226 -145 -52 -70
-82 -145 -83 -203 0 -33 5 -40 70 -88 l71 -52 61 33 c34 18 114 51 177 73
l115 41 55 109 54 110 -47 42 c-50 46 -144 104 -167 104 -8 0 -44 -11 -80 -24z
M3750 3559 c-14 -12 -33 -27 -44 -34 -18 -13 -18 -16 7 -87 15 -40 31 -98 37
-128 10 -52 14 -57 71 -95 33 -22 87 -68 120 -102 62 -64 67 -65 105 -31 20
18 21 21 7 81 -32 139 -132 314 -222 390 -39 32 -48 33 -81 6z M3125 3281
c-125 -44 -235 -101 -240 -125 -13 -56 -35 -202 -35 -231 0 -27 13 -44 83
-112 87 -83 195 -163 221 -163 25 0 129 38 205 75 l69 34 6 68 c4 37 11 93 16
123 5 30 11 83 15 116 l6 62 -113 91 c-62 50 -122 91 -133 91 -11 -1 -56 -13
-100 -29z M3710 3217 c-14 -6 -59 -26 -100 -44 -41 -18 -82 -37 -90 -42 -11
-6 -21 -54 -37 -172 -12 -90 -22 -173 -22 -184 -1 -14 31 -51 94 -109 l95 -87
57 16 c70 20 159 65 201 100 38 32 60 94 74 218 l12 98 -70 70 c-56 58 -174
151 -186 148 -2 0 -14 -5 -28 -12z M2755 2840 c-38 -11 -73 -20 -78 -20 -32
-1 -24 -163 12 -243 10 -23 40 -66 67 -96 50 -55 182 -151 207 -151 21 0 170
50 181 60 5 5 4 54 -4 118 l-12 110 -66 43 c-36 24 -103 79 -148 121 -45 43
-83 78 -85 77 -2 0 -35 -9 -74 -19z M3900 2646 c-49 -32 -167 -83 -213 -91
-32 -6 -44 -17 -79 -67 -22 -33 -48 -68 -57 -77 -9 -10 -27 -29 -40 -44 l-23
-26 22 -30 c26 -37 35 -38 103 -9 123 52 257 163 329 272 36 56 37 60 22 78
-21 22 -21 22 -64 -6z M3105 2337 c-44 -15 -82 -30 -84 -33 -8 -8 75 -36 153
-51 83 -16 256 -14 303 4 l22 8 -20 33 c-20 30 -24 32 -82 32 -34 0 -96 8
-137 18 l-76 18 -79 -29z M4210 2044 c-191 -75 -432 -169 -680 -264 -96 -38
-249 -97 -340 -132 -91 -36 -248 -97 -350 -137 -101 -40 -187 -74 -190 -77 -3
-3 9 -17 25 -30 17 -14 36 -30 44 -36 49 -40 296 -204 380 -252 l101 -58 93
53 c403 231 787 566 1060 926 26 34 47 64 47 67 0 12 -30 3 -190 -60z"/></g>
</svg>